<svg id="Layer_1" data-name="Layer 1" xmlns="http://www.w3.org/2000/svg" viewBox="0 0 215 190.9"><defs><style>.cls-1{fill:#faa61a;}.cls-2{fill:#42210b;}.cls-3{fill:#ffcb05;}.cls-4{fill:#fff;}</style></defs><path class="cls-1" d="M107.7,140.3V150H74a35.1,35.1,0,0,1-3.5-9.7h37.2Z" transform="translate(0 -12.1)"/><polygon class="cls-1" points="107.7 107.8 107.7 117.4 107.5 117.4 69.8 117.4 69.8 107.8 107.7 107.8"/><rect class="cls-1" x="69.8" y="87.8" width="38" height="9.19"/><path class="cls-1" d="M102.3,51.8a4.8,4.8,0,0,0,4.8,4.8h.6V68.5H70.5c4.2-20.1,20.7-30.1,37.2-30v8.6h-.6A4.8,4.8,0,0,0,102.3,51.8Z" transform="translate(0 -12.1)"/><path class="cls-1" d="M107.7,160.8v9.6H104l-1.5-.2-1.3-.2h-.8l-1-.3h-.5l-1.4-.3L94.3,168a35.4,35.4,0,0,1-11.8-7.2Z" transform="translate(0 -12.1)"/><path class="cls-1" d="M107.7,79.4V89H69.8V79.4h37.9Z" transform="translate(0 -12.1)"/><path class="cls-2" d="M179.1,68.6H155.4a48.3,48.3,0,0,0-19.9-32l15.3-15.3a5.4,5.4,0,0,0-7.7-7.7L125.6,31.1a48.1,48.1,0,0,0-37.6.6L70,13.6a5.4,5.4,0,0,0-7.7,7.7L78.4,37.4A48.3,48.3,0,0,0,59.6,68.6H35.9a35.9,35.9,0,0,0,0,71.8H59.6a48.3,48.3,0,0,0,42.5,40.6v16.6a5.4,5.4,0,0,0,10.8,0V180.9c20.2-2.4,38.8-16.9,42.5-40.6h23.7a35.9,35.9,0,1,0,0-71.8ZM58.9,129.5h-23a25.1,25.1,0,1,1,0-50.1h23Zm48.8-90.9c16.3.1,32.6,10,36.8,29.9h-74C74.7,48.5,91.2,38.5,107.7,38.6Zm0,131.8H104l-1.5-.2-1.3-.2h-.8l-1-.3h-.5l-1.4-.3L94.3,168a35.4,35.4,0,0,1-11.8-7.2h50A36.8,36.8,0,0,1,107.7,170.4ZM141,150H74a35.1,35.1,0,0,1-3.5-9.7h74A35.1,35.1,0,0,1,141,150Zm4.2-20.5H69.8v-9.6h75.4Zm0-20.5H69.8V99.8h75.4Zm0-20H69.8V79.4h75.4Zm33.9,40.5h-23V79.4h23a25.1,25.1,0,1,1,0,50.1Z" transform="translate(0 -12.1)"/><path class="cls-3" d="M204.2,104.5a25.1,25.1,0,0,1-25.1,25h-23V79.4h23A25.2,25.2,0,0,1,204.2,104.5Z" transform="translate(0 -12.1)"/><path class="cls-3" d="M132.5,160.8a36.8,36.8,0,0,1-24.8,9.6v-9.6Z" transform="translate(0 -12.1)"/><path class="cls-3" d="M144.5,140.3A35.1,35.1,0,0,1,141,150H107.7v-9.7Z" transform="translate(0 -12.1)"/><polygon class="cls-3" points="145.3 107.8 145.3 117.4 107.7 117.4 107.7 107.8 145.3 107.8"/><rect class="cls-3" x="107.7" y="87.8" width="37.5" height="9.19"/><path class="cls-3" d="M144.5,68.5H107.7V56.6a15.5,15.5,0,0,1,10.7,4.7,4.7,4.7,0,1,0,6.7-6.7,25.3,25.3,0,0,0-17.4-7.4V38.6C124,38.7,140.3,48.6,144.5,68.5Z" transform="translate(0 -12.1)"/><path class="cls-3" d="M145.2,79.3V89H107.7V79.4Z" transform="translate(0 -12.1)"/><path class="cls-3" d="M58.9,79.4v50.1h-23a25.1,25.1,0,1,1,0-50.1Z" transform="translate(0 -12.1)"/><path class="cls-4" d="M125.1,61.3a4.8,4.8,0,0,1-6.7,0,15.5,15.5,0,0,0-10.7-4.7h-.6a4.8,4.8,0,1,1,0-9.5h.6a25.3,25.3,0,0,1,17.4,7.4A4.8,4.8,0,0,1,125.1,61.3Z" transform="translate(0 -12.1)"/></svg>